<svg width="722" height="246" xmlns="http://www.w3.org/2000/svg" xmlns:xlink="http://www.w3.org/1999/xlink" overflow="hidden"><defs><clipPath id="clip0"><path d="M141 120 863 120 863 366 141 366Z" fill-rule="evenodd" clip-rule="evenodd"/></clipPath></defs><g clip-path="url(#clip0)" transform="translate(-141 -120)"><path d="M0 0 99.4755 24.1425" stroke="#000000" stroke-linejoin="round" stroke-miterlimit="10" stroke-dasharray="8 3" fill="none" fill-rule="evenodd" transform="matrix(1 0 0 -1 424.5 147.643)"/><path d="M0 0 109.078 60.5107" stroke="#000000" stroke-linejoin="round" stroke-miterlimit="10" stroke-dasharray="8 3" fill="none" fill-rule="evenodd" transform="matrix(1 0 0 -1 281.5 182.011)"/><path d="M0 0 128.518 68.5431" stroke="#4A7EBB" stroke-width="3" stroke-linejoin="round" stroke-miterlimit="10" fill="none" fill-rule="evenodd" transform="matrix(1 0 0 -1 153.5 253.043)"/><path d="M0 0 145.654 34.2715" stroke="#4A7EBB" stroke-width="3" stroke-linejoin="round" stroke-miterlimit="10" fill="none" fill-rule="evenodd" transform="matrix(1 0 0 -1 273.5 183.772)"/><path d="M427.5 149.5 547.45 192.339" stroke="#4A7EBB" stroke-width="3" stroke-linejoin="round" stroke-miterlimit="10" fill="none" fill-rule="evenodd"/><path d="M273.5 184C273.5 179.306 277.306 175.5 282 175.5 286.694 175.5 290.5 179.306 290.5 184 290.5 188.694 286.694 192.5 282 192.5 277.306 192.5 273.5 188.694 273.5 184Z" stroke="#385D8A" stroke-width="2.66667" stroke-linejoin="round" stroke-miterlimit="10" fill="#4F81BD" fill-rule="evenodd"/><path d="M410.5 150C410.5 145.306 414.306 141.5 419 141.5 423.694 141.5 427.5 145.306 427.5 150 427.5 154.694 423.694 158.5 419 158.5 414.306 158.5 410.5 154.694 410.5 150Z" stroke="#385D8A" stroke-width="2.66667" stroke-linejoin="round" stroke-miterlimit="10" fill="#4F81BD" fill-rule="evenodd"/><path d="M147.5 252C147.5 247.306 151.529 243.5 156.5 243.5 161.471 243.5 165.5 247.306 165.5 252 165.5 256.694 161.471 260.5 156.5 260.5 151.529 260.5 147.5 256.694 147.5 252Z" stroke="#385D8A" stroke-width="2.66667" stroke-linejoin="round" stroke-miterlimit="10" fill="#4F81BD" fill-rule="evenodd"/><path d="M538 192.5C538 187.806 541.806 184 546.5 184 551.194 184 555 187.806 555 192.5 555 197.194 551.194 201 546.5 201 541.806 201 538 197.194 538 192.5Z" fill="#FF0000" fill-rule="evenodd"/><path d="M165.5 251.5 295.782 252.571" stroke="#000000" stroke-linejoin="round" stroke-miterlimit="10" stroke-dasharray="8 3" fill="none" fill-rule="evenodd"/><path d="M204.562 225.585C215.238 230.082 220.247 242.38 215.75 253.055" stroke="#4A7EBB" stroke-linejoin="round" stroke-miterlimit="10" fill="none" fill-rule="evenodd"/><path d="M342.977 149.488C347.195 153.402 349.618 158.878 349.681 164.632" stroke="#4A7EBB" stroke-linejoin="round" stroke-miterlimit="10" fill="none" fill-rule="evenodd"/><path d="M475.759 133.055C484.604 140.535 485.71 153.768 478.231 162.613 477.11 163.938 475.829 165.119 474.417 166.129" stroke="#4A7EBB" stroke-linejoin="round" stroke-miterlimit="10" fill="none" fill-rule="evenodd"/><text font-family="Calibri,Calibri_MSFontService,sans-serif" font-style="italic" font-weight="400" font-size="24" transform="translate(225.686 236)">q<tspan font-size="16" x="12.3333" y="5">1</tspan><tspan x="131.477" y="-85">q</tspan><tspan font-size="16" x="143.811" y="-80">2</tspan><tspan x="269.911" y="-80">q</tspan><tspan font-size="16" x="282.245" y="-75">3</tspan></text><path d="M607.5 244.5C607.5 178.778 660.778 125.5 726.5 125.5 792.222 125.5 845.5 178.778 845.5 244.5 845.5 310.222 792.222 363.5 726.5 363.5 660.778 363.5 607.5 310.222 607.5 244.5Z" stroke="#00B050" stroke-width="2.66667" stroke-linejoin="round" stroke-miterlimit="10" fill="none" fill-rule="evenodd"/><path d="M722 247.5C722 242.806 725.806 239 730.5 239 735.194 239 739 242.806 739 247.5 739 252.194 735.194 256 730.5 256 725.806 256 722 252.194 722 247.5Z" fill="#00B050" fill-rule="evenodd"/><path d="M555.5 193.5 678.207 194.45" stroke="#4A7EBB" stroke-linejoin="round" stroke-miterlimit="10" stroke-dasharray="4 3" fill="none" fill-rule="evenodd"/><text font-family="Calibri,Calibri_MSFontService,sans-serif" font-style="italic" font-weight="400" font-size="24" transform="translate(582.378 186)">e<tspan font-size="16" x="11.5" y="5">1</tspan></text><path d="M678 193.5C678 188.806 681.806 185 686.5 185 691.194 185 695 188.806 695 193.5 695 198.194 691.194 202 686.5 202 681.806 202 678 198.194 678 193.5Z" fill-rule="evenodd"/><text font-family="Calibri,Calibri_MSFontService,sans-serif" font-style="italic" font-weight="400" font-size="24" transform="translate(700.349 196)">(x<tspan font-size="16" x="17.6666" y="5">1</tspan><tspan x="25.8333" y="0">, x</tspan><tspan font-size="16" x="47.6666" y="5">2</tspan><tspan x="55.8333" y="0">)</tspan></text><path d="M653.5 153.5 680.696 188.059" stroke="#4A7EBB" stroke-linejoin="round" stroke-miterlimit="10" stroke-dasharray="4 3" fill="none" fill-rule="evenodd"/><text font-family="Calibri,Calibri_MSFontService,sans-serif" font-style="italic" font-weight="400" font-size="24" transform="translate(670.79 169)">e<tspan font-size="16" x="11.5" y="5">2</tspan><tspan x="-164.396" y="61">g(q)</tspan><tspan x="78.8176" y="86">(0, 0)</tspan><tspan x="-514.617" y="119">(</tspan><tspan x="-507.283" y="119">-</tspan>3, 0)</text></g></svg>